 <svg version="1.0" xmlns="http://www.w3.org/2000/svg" width="169.000000pt" height="100.000000pt" viewBox="0 0 169.000000 100.000000" preserveAspectRatio="xMidYMid meet">  <g transform="translate(0.000000,100.000000) scale(0.100000,-0.100000)" fill="#ffffff" stroke="none"> <path d="M435 879 c88 -5 171 -9 185 -9 14 1 110 3 214 6 l189 5 -26 -30 c-14 -17 -28 -40 -32 -51 -6 -19 -15 -20 -150 -20 -155 0 -175 -6 -175 -54 0 -22 17 -46 33 -46 5 0 1 7 -7 16 -22 21 -20 51 3 64 11 5 82 10 159 10 l140 0 -4 -47 -3 -48 9 45 c5 25 7 53 4 64 -4 11 -2 16 4 12 5 -3 17 6 26 20 38 57 66 64 249 64 154 0 169 -2 187 -20 11 -11 20 -27 20 -35 0 -8 -9 -24 -20 -35 -18 -18 -33 -20 -175 -20 -142 0 -157 -2 -175 -20 -27 -27 -27 -103 0 -161 11 -24 20 -37 20 -29 0 8 -7 28 -15 44 -8 15 -15 50 -15 77 0 74 13 79 193 79 144 0 149 1 172 25 30 29 32 58 5 85 -18 18 -33 20 -189 20 -93 0 -182 -5 -197 -10 -18 -7 -30 -7 -39 0 -9 7 -75 9 -197 6 -100 -3 -194 -5 -208 -5 -14 -1 -97 1 -185 3 l-160 3 160 -8z"></path> <path d="M220 825 c-3 -5 -3 -120 0 -255 l5 -245 170 1 c139 0 176 3 202 17 27 14 32 15 37 2 4 -12 36 -15 186 -15 112 0 189 4 202 11 14 8 23 8 31 0 6 -6 20 -10 32 -10 18 1 18 2 2 6 -18 4 -17 6 4 29 19 20 23 37 25 101 2 76 2 77 -7 25 -12 -70 -33 -109 -72 -132 -29 -18 -51 -20 -216 -20 l-185 0 26 28 c14 15 31 37 37 50 11 21 17 22 142 22 73 0 139 5 150 11 41 21 44 86 5 111 -6 4 -78 8 -159 8 -102 0 -158 4 -180 14 -50 20 -85 69 -93 127 -4 33 -13 53 -25 59 -10 6 -56 10 -103 10 l-86 0 0 -71 0 -71 100 3 c97 4 100 3 117 -21 22 -33 41 -47 82 -65 l33 -15 -4 -60 c-3 -46 -10 -66 -29 -86 -42 -46 -75 -54 -251 -56 l-163 -1 -5 249 c-3 137 -7 245 -10 239z m314 -61 c10 -4 16 -18 16 -38 0 -53 40 -117 90 -143 39 -21 56 -23 186 -23 154 0 169 -3 185 -31 10 -20 -3 -56 -25 -71 -6 -4 -73 -8 -149 -8 l-137 0 -11 -27 c-11 -30 -37 -63 -50 -63 -4 0 2 11 15 25 29 31 46 93 37 134 -5 24 -17 36 -51 53 -26 13 -55 39 -69 60 -21 32 -26 35 -48 27 -13 -5 -56 -9 -94 -9 l-69 0 0 60 0 60 79 0 c44 0 86 -3 95 -6z"></path> <path d="M753 673 c37 -2 97 -2 135 0 37 2 6 3 -68 3 -74 0 -105 -1 -67 -3z"></path> <path d="M356 573 c-3 -4 -6 -34 -6 -69 0 -71 3 -74 83 -74 70 0 124 16 138 41 14 27 3 72 -21 86 -27 18 -150 29 -150 14 0 -7 23 -11 65 -11 70 0 105 -20 105 -58 0 -39 -31 -52 -123 -52 l-87 0 0 54 c0 44 3 55 18 58 15 3 15 4 0 10 -9 4 -19 4 -22 1z"></path> <path d="M1231 456 c3 -3 45 -6 94 -7 75 -1 94 -5 113 -22 27 -25 28 -38 4 -67 -17 -21 -24 -22 -175 -21 -86 1 -157 -2 -157 -6 0 -4 72 -8 161 -8 157 0 161 1 180 24 26 31 24 57 -6 86 -22 23 -31 25 -121 25 -54 0 -95 -2 -93 -4z"></path> <path d="M230 250 c0 -7 212 -10 615 -10 403 0 615 3 615 10 0 7 -212 10 -615 10 -403 0 -615 -3 -615 -10z"></path> <path d="M230 189 c0 -10 5 -21 10 -24 6 -3 10 -11 10 -16 0 -6 -5 -7 -11 -3 -7 4 -10 -1 -7 -12 5 -26 42 -25 45 1 3 20 3 20 -6 0 -8 -17 -10 -16 -10 11 -1 48 27 53 31 6 3 -38 21 -48 25 -15 2 15 1 15 -6 -2 -8 -16 -10 -12 -10 22 -1 34 2 41 14 37 10 -4 15 -20 15 -45 0 -21 3 -39 8 -39 4 0 6 21 3 48 -2 26 1 43 5 39 5 -5 9 -22 10 -39 1 -16 6 -34 11 -39 10 -10 10 51 0 68 -4 6 -1 14 5 16 7 3 -22 5 -64 5 -69 0 -78 -2 -78 -19z"></path> <path d="M390 160 l0 -50 34 0 c28 0 35 4 40 25 4 14 10 24 14 21 4 -2 7 9 7 25 0 16 -4 27 -10 25 -5 -2 -9 -13 -8 -25 2 -11 -2 -21 -8 -21 -7 0 -9 11 -7 25 5 23 2 25 -28 25 l-34 0 0 -50z m50 4 c0 -22 -5 -33 -18 -36 -14 -4 -17 2 -17 31 0 28 4 37 17 37 14 0 18 -8 18 -32z"></path> <path d="M505 161 c1 -39 4 -46 20 -46 14 0 21 8 23 28 2 18 -1 27 -11 27 -8 0 -17 6 -20 13 -3 8 1 14 9 14 7 0 11 -4 8 -9 -7 -11 3 -10 27 2 17 10 19 7 19 -30 0 -29 -4 -39 -12 -34 -7 5 -8 3 -3 -5 11 -18 23 -1 28 39 4 34 4 34 5 -7 2 -39 4 -41 30 -39 25 3 27 7 30 50 2 25 -1 46 -5 46 -4 0 -6 -21 -4 -47 3 -42 1 -46 -12 -35 -12 10 -16 10 -20 0 -3 -7 -6 6 -6 30 -1 30 2 41 11 36 7 -4 8 -3 4 4 -4 7 -32 11 -65 11 l-57 -1 1 -47z"></path> <path d="M696 198 c-11 -35 -16 -88 -8 -88 17 0 34 29 35 61 2 32 -19 53 -27 27z"></path> <path d="M740 179 c0 -17 -5 -39 -10 -50 -9 -15 -7 -19 7 -19 15 0 18 7 14 46 -2 34 0 45 9 39 6 -4 9 -14 6 -22 -8 -19 3 -63 15 -63 6 0 5 9 -1 20 -6 11 -8 25 -5 30 10 16 -5 50 -21 50 -9 0 -14 -11 -14 -31z"></path> <path d="M800 159 c0 -47 2 -50 23 -47 19 3 22 10 25 51 2 44 1 47 -23 47 -23 0 -25 -3 -25 -51z m35 -1 c0 -21 -5 -38 -10 -38 -6 0 -11 17 -11 38 0 21 5 39 10 39 6 0 11 -18 11 -39z"></path> <path d="M887 203 c-14 -13 -7 -84 8 -89 22 -9 45 14 45 45 0 39 -32 65 -53 44z m27 -15 c-3 -4 0 -8 5 -8 6 0 11 -7 11 -15 0 -8 -5 -15 -11 -15 -6 0 -9 -6 -6 -13 3 -8 0 -14 -6 -14 -7 0 -12 16 -12 37 0 22 5 37 12 37 7 0 10 -4 7 -9z"></path> <path d="M952 190 c10 -15 10 -27 1 -50 -10 -28 -10 -30 10 -29 12 0 17 3 11 5 -7 3 -8 20 -4 49 6 40 5 45 -12 45 -16 0 -16 -3 -6 -20z"></path> <path d="M990 160 c0 -27 4 -50 9 -50 8 0 42 92 36 99 -10 10 -25 -14 -19 -31 4 -14 3 -18 -6 -13 -6 4 -10 16 -7 26 3 11 1 19 -4 19 -5 0 -9 -22 -9 -50z"></path> <path d="M1050 160 c0 -48 2 -51 23 -48 19 3 22 9 22 48 0 39 -3 45 -22 48 -21 3 -23 0 -23 -48z"></path> <path d="M1115 161 c0 -27 3 -47 8 -44 4 2 7 19 7 38 0 20 6 35 15 39 12 4 15 -3 15 -37 0 -32 -3 -39 -11 -27 -7 10 -9 11 -7 2 7 -26 23 -12 29 25 l6 38 2 -42 c2 -60 16 -54 16 7 l0 50 -40 0 -40 0 0 -49z"></path> <path d="M1215 198 c-11 -38 -11 -69 1 -79 23 -19 36 -5 38 44 2 39 -1 47 -16 47 -10 0 -20 -6 -23 -12z m30 -38 c0 -23 -5 -37 -12 -37 -8 0 -13 14 -13 37 0 23 5 37 13 37 7 0 12 -14 12 -37z"></path> <path d="M1297 195 c-4 -8 -1 -17 4 -21 6 -3 9 -19 7 -35 -3 -16 -1 -29 4 -29 4 0 8 23 8 50 0 48 -12 66 -23 35z"></path> <path d="M1335 160 c0 -39 3 -48 17 -47 12 1 14 5 7 18 -14 27 -11 57 8 67 13 8 12 10 -8 10 -22 0 -24 -4 -24 -48z"></path> <path d="M1381 182 c-7 -13 -9 -27 -7 -30 3 -3 10 6 15 19 9 21 10 20 10 -16 1 -29 -2 -36 -9 -25 -8 13 -10 12 -10 -2 0 -22 26 -24 34 -2 3 9 6 29 6 46 0 26 2 29 15 18 12 -10 13 -15 4 -20 -8 -6 -8 -13 1 -30 7 -13 8 -20 2 -16 -6 3 -13 2 -17 -4 -3 -5 2 -10 13 -10 15 0 18 8 18 50 1 49 1 49 -32 48 -24 -1 -35 -7 -43 -26z"></path> <path d="M230 80 c0 -7 212 -10 615 -10 403 0 615 3 615 10 0 7 -212 10 -615 10 -403 0 -615 -3 -615 -10z"></path> </g> </svg> 