<?xml version="1.0" encoding="utf-8"?>
<!-- Generator: Adobe Illustrator 25.2.0, SVG Export Plug-In . SVG Version: 6.00 Build 0)  -->
<svg version="1.1" id="Layer_1" xmlns="http://www.w3.org/2000/svg" xmlns:xlink="http://www.w3.org/1999/xlink" x="0px" y="0px"
	 viewBox="0 0 595.28 362.65" style="enable-background:new 0 0 595.28 362.65;" xml:space="preserve">
<style type="text/css">
	.st0{fill:#FFFFFF;}
</style>
<g>
	<path class="st0" d="M217.93,234.7c7.25-7.57,14.16-13.96,19.99-21.22c3.38-4.21,5.48-9.67,7.3-14.87
		c1.31-3.76,2.74-5.22,6.98-5.19c30.74,0.22,61.48,0.03,92.21,0.16c10.22,0.04,18.11-3.5,22.65-13
		c7.46-15.64-3.28-32.78-20.61-32.84c-31.92-0.12-63.84,0.23-95.75-0.35c-37.27-0.67-63.77-31.15-59.96-68.34
		c0.34-3.32-0.64-5.64-3.32-6.51c-6.66-2.16-13.44-5.04-20.27-5.36c-16.85-0.79-33.77-0.23-50.65-0.4
		c-3.42-0.03-4.29,1.27-4.26,4.46c0.13,13.51,0.14,27.02-0.02,40.53c-0.04,3.37,1.21,4.44,4.41,4.41
		c16.21-0.15,32.45,0.32,48.62-0.45c7.56-0.36,15.02-3.02,22.84-4.71c2.11,4.01,4.42,9.26,7.46,14.04
		c8.64,13.58,20.91,22.37,36.67,25.8c4.22,0.92,6.23,2.97,7.52,6.87c11.11,33.47-10.44,71.46-45.05,78.58
		c-8.71,1.79-17.72,2.89-26.6,2.99c-32.93,0.36-65.87,0.16-98.8,0.16c-1.5,0-3-0.16-4.83-0.26c0-71.53,0-142.88,0-214.58
		c1.44-0.16,2.72-0.44,4-0.44c36.65-0.03,73.3-0.09,109.95,0.01c11.31,0.03,22.11,2.67,32.17,7.9c2.66,1.38,4.73,1.55,7.4-0.15
		c8.5-5.4,17.89-7.33,27.98-7.28c38.51,0.19,77.02,0.02,115.52,0.15c4.08,0.01,8.15,1.11,12.23,1.7c0.1,0.46,0.19,0.93,0.29,1.39
		c-1.47,1.21-2.9,2.49-4.43,3.62c-10.99,8.14-18.3,18.89-21.83,32c-1.08,4.01-2.86,4.84-6.63,4.83c-32.76-0.13-65.53-0.1-98.3-0.06
		c-8.69,0.01-15.07,4.12-17.63,11.03c-4.49,12.13,3.73,23.91,17.08,24.03c20.1,0.18,40.2,0.07,60.29,0.08
		c13.85,0.01,27.7-0.11,41.55,0.08c4.04,0.06,5.21-1.31,5.1-5.28c-0.32-11.49-0.04-22.86,3.89-33.99
		c8.74-24.77,30.37-40.55,56.54-40.58c35.13-0.04,70.26-0.03,105.39-0.1c14.36-0.03,25.19,9.87,25.37,23.36
		c0.18,13.7-10.48,24.25-25.02,24.3c-32.76,0.12-65.53,0.07-98.3,0.03c-6.6-0.01-12.69,1.16-18.02,5.41
		c-5.84,4.65-8.47,10.78-8.84,18.03c-0.15,2.86,0.12,5.75-0.06,8.61c-0.69,11.23,1.82,21.1,6.96,31.63
		c13.63,27.96,11.92,56.12-6.12,82.07c-9.21,13.25-23.06,20.14-38.99,20.36c-39.85,0.54-79.72,0.27-119.57,0.04
		C227.54,237.39,222.67,235.63,217.93,234.7z M112.29,147.2c0,15.26,0.05,30.41-0.03,45.56c-0.02,3.46,2.25,3.14,4.45,3.14
		c15.86,0,31.72,0.25,47.56-0.16c5.98-0.16,12.13-1.18,17.82-3c8.75-2.8,13.99-9.08,14.5-18.66c0.52-9.68-2.06-18.04-11.54-22.17
		c-5.47-2.39-11.51-4.5-17.37-4.76c-17.17-0.75-34.39-0.51-51.59-0.62C114.94,146.52,113.8,146.92,112.29,147.2z"/>
	<path class="st0" d="M382.64,235.32c5.88-6.17,11.53-10.57,15.13-16.27c4.42-7.02,7.43-15.01,10.42-22.82
		c1.14-2.98,2.06-4.38,5.43-4.37c34.62,0.09,69.24-0.06,103.86,0.06c12.39,0.04,22.39,10.22,22.81,22.6
		c0.42,12.42-8.75,23.25-20.87,24.53c-2.68,0.28-5.4,0.21-8.09,0.21c-34.79,0.01-69.58,0.22-104.36-0.18
		C399.06,238.98,391.19,236.7,382.64,235.32z"/>
</g>
<g>
	<path class="st0" d="M70.54,310.51v2.29c0,2.76,0.85,4.29,3.07,4.29c2.28,0,2.87-2.11,2.87-4.52c0-3.98-0.88-5.22-4.95-8.36
		c-4.08-3.15-6.26-5.16-6.26-10.65c0-4.88,1.51-9.82,8.36-9.81c7,0.01,8.08,4.88,8.08,8.91v1.98h-5.8v-1.83
		c0-2.58-0.45-4.14-2.39-4.14c-1.9,0-2.4,1.62-2.4,4.07c0,2.62,0.51,3.9,3.84,6.29c5.68,4.1,7.41,6.48,7.41,12.69
		c0,5.26-1.88,10.24-8.96,10.24c-7.02,0-8.73-4.37-8.73-9.25v-2.2H70.54z"/>
	<path class="st0" d="M89.85,289.66h-6.09v-5.31h18.06v5.31H95.7v31.76h-5.85V289.66z"/>
	<path class="st0" d="M110.28,304.84v16.58h-5.85v-37.07h8.1c5.77,0,9.18,2.26,9.18,8.93v1.41c0,5.7-2.39,7.14-3.86,7.73
		c2.21,1.01,3.48,2.57,3.48,7.6c0,3.12-0.06,9.14,0.35,11.39h-5.65c-0.5-2.24-0.4-8.33-0.4-11.02c0-4.52-0.6-5.56-3.99-5.56H110.28z
		 M110.28,300.12h1.34c3.1,0,4.23-1.14,4.23-5.17v-1.27c0-2.87-0.61-4.61-3.92-4.61h-1.65V300.12z"/>
	<path class="st0" d="M140.21,304.49h-8.34v11.68h9.61l-0.74,5.26h-14.72v-37.07h14.65v5.31h-8.8v9.57h8.34V304.49z"/>
	<path class="st0" d="M144.3,321.42v-37.07h6.77c1.51,5.23,6.04,23.53,6.44,25.49h0.06c-0.27-4.56-0.28-9.78-0.28-15.87v-9.63h5.4
		v37.07h-6.52c-1.2-4.43-6.24-24.76-6.62-26.31h-0.06c0.28,4.49,0.25,9.51,0.25,16.18v10.14H144.3z"/>
	<path class="st0" d="M184.96,321.42h-4.56c-0.16-0.65-0.27-1.99-0.32-2.78c-1.05,2.47-3.25,3.32-5.7,3.32
		c-5.58,0-7.38-3.95-7.38-10.23v-17.41c0-6.05,2.41-10.51,9-10.51c7.97,0,8.81,5.72,8.81,9.7v1.2h-5.85v-1.48
		c0-1.95-0.29-4.21-2.96-4.21c-2.13,0-3.04,1.44-3.04,4.4v18.96c0,2.97,0.88,4.52,2.99,4.52c2.54,0,3.15-2.08,3.15-5.88v-5.41h-3.32
		v-4.92h9.17V321.42z"/>
	<path class="st0" d="M192.91,289.66h-6.09v-5.31h18.06v5.31h-6.12v31.76h-5.85V289.66z"/>
	<path class="st0" d="M207.5,284.35h5.85v14.63h6.3v-14.63h5.85v37.07h-5.85v-17.18h-6.3v17.18h-5.85V284.35z"/>
	<path class="st0" d="M243.15,311.5l-1.33,9.92h-5.95l6.11-37.07h8.26l6.34,37.07h-6.11l-1.49-9.92H243.15z M248.3,306.25
		c-0.87-6.3-1.7-12.27-2.13-16.46h-0.21c-0.16,3.05-1.3,10.99-2.06,16.46H248.3z"/>
	<path class="st0" d="M259.4,321.42v-37.07h6.77c1.51,5.23,6.04,23.53,6.44,25.49h0.06c-0.27-4.56-0.28-9.78-0.28-15.87v-9.63h5.4
		v37.07h-6.52c-1.2-4.43-6.24-24.76-6.62-26.31h-0.06c0.28,4.49,0.25,9.51,0.25,16.18v10.14H259.4z"/>
	<path class="st0" d="M282.9,284.35h8.11c8.05,0,10,4.07,10,10.95v14.21c0,5.67-0.99,11.9-10.01,11.9h-8.1V284.35z M288.75,316.55
		h1.88c3.84,0,4.43-2.42,4.43-6.26v-15.44c0-3.41-0.62-5.59-4.47-5.59h-1.84V316.55z"/>
	<path class="st0" d="M329.27,310.34v1.45c0,4.24-0.72,10.18-8.74,10.18c-7.02,0-8.51-4.29-8.51-9.95v-18.69
		c0-5.72,2.65-9.51,8.61-9.51c7.11,0,8.47,4.61,8.47,9.74v1.66h-5.86v-2.33c0-2.46-0.59-3.87-2.62-3.87c-2,0-2.64,1.35-2.64,3.89
		v19.6c0,2.42,0.49,4.3,2.71,4.3c2.11,0,2.67-1.63,2.67-4.39v-2.07H329.27z"/>
	<path class="st0" d="M350.97,294.19v17.31c0,7.1-3.08,10.46-9.51,10.46c-6.16,0-8.94-3.44-8.94-10.36v-17.45
		c0-7.1,3.66-10.34,9.31-10.34C347.58,283.81,350.97,287.06,350.97,294.19z M338.47,293.63v18.64c0,3.08,1.14,4.53,3.25,4.53
		c2.27,0,3.29-1.35,3.29-4.61v-18.61c0-2.94-0.92-4.57-3.3-4.57C339.61,289.02,338.47,290.49,338.47,293.63z"/>
	<path class="st0" d="M355.3,321.42v-37.07h6.77c1.51,5.23,6.04,23.53,6.44,25.49h0.06c-0.27-4.56-0.28-9.78-0.28-15.87v-9.63h5.4
		v37.07h-6.52c-1.2-4.43-6.24-24.76-6.62-26.31h-0.06c0.28,4.49,0.25,9.51,0.25,16.18v10.14H355.3z"/>
	<path class="st0" d="M378.81,284.35h8.11c8.05,0,10,4.07,10,10.95v14.21c0,5.67-0.99,11.9-10.01,11.9h-8.1V284.35z M384.66,316.55
		h1.88c3.84,0,4.43-2.42,4.43-6.26v-15.44c0-3.41-0.62-5.59-4.47-5.59h-1.84V316.55z"/>
	<path class="st0" d="M407.15,284.35v37.07h-5.85v-37.07H407.15z"/>
	<path class="st0" d="M415.9,289.66h-6.09v-5.31h18.06v5.31h-6.12v31.76h-5.85V289.66z"/>
	<path class="st0" d="M436.33,284.35v37.07h-5.85v-37.07H436.33z"/>
	<path class="st0" d="M459.14,294.19v17.31c0,7.1-3.08,10.46-9.51,10.46c-6.16,0-8.94-3.44-8.94-10.36v-17.45
		c0-7.1,3.66-10.34,9.31-10.34C455.75,283.81,459.14,287.06,459.14,294.19z M446.65,293.63v18.64c0,3.08,1.14,4.53,3.25,4.53
		c2.27,0,3.29-1.35,3.29-4.61v-18.61c0-2.94-0.92-4.57-3.3-4.57C447.78,289.02,446.65,290.49,446.65,293.63z"/>
	<path class="st0" d="M463.47,321.42v-37.07h6.77c1.51,5.23,6.04,23.53,6.44,25.49h0.06c-0.27-4.56-0.28-9.78-0.28-15.87v-9.63h5.4
		v37.07h-6.52c-1.2-4.43-6.24-24.76-6.62-26.31h-0.06c0.28,4.49,0.25,9.51,0.25,16.18v10.14H463.47z"/>
	<path class="st0" d="M492.83,284.35v37.07h-5.85v-37.07H492.83z"/>
	<path class="st0" d="M498,321.42v-37.07h6.77c1.51,5.23,6.04,23.53,6.44,25.49h0.06c-0.27-4.56-0.28-9.78-0.28-15.87v-9.63h5.4
		v37.07h-6.52c-1.2-4.43-6.24-24.76-6.62-26.31h-0.06c0.28,4.49,0.26,9.51,0.26,16.18v10.14H498z"/>
	<path class="st0" d="M538.65,321.42h-4.56c-0.16-0.65-0.27-1.99-0.32-2.78c-1.05,2.47-3.25,3.32-5.7,3.32
		c-5.58,0-7.38-3.95-7.38-10.23v-17.41c0-6.05,2.41-10.51,9-10.51c7.96,0,8.81,5.72,8.81,9.7v1.2h-5.85v-1.48
		c0-1.95-0.29-4.21-2.96-4.21c-2.13,0-3.04,1.44-3.04,4.4v18.96c0,2.97,0.88,4.52,2.99,4.52c2.53,0,3.15-2.08,3.15-5.88v-5.41h-3.32
		v-4.92h9.17V321.42z"/>
</g>
<rect x="65" y="266.15" class="st0" width="474.84" height="6.06"/>
<rect x="65" y="333.01" class="st0" width="474.84" height="6.06"/>
</svg>
